<svg width="375" height="812" viewBox="0 0 375 812" fill="none" xmlns="http://www.w3.org/2000/svg">
<g id="ContactForm">
<g id="iPhone 11 Pro / X - 1">
<rect width="375" height="812" fill="url(#paint0_diamond)"/>
<g id="ContactPage">
<g id="Listen">
<g id="Rectangle 2" opacity="0.7" filter="url(#filter0_d)">
<rect x="46" y="588" width="293" height="64" rx="12" fill="#2BE0B2"/>
</g>
<g id="Listen to the Podcast" filter="url(#filter1_d)">
<path d="M108.913 623.88H111.505C111.718 623.88 111.825 624.067 111.825 624.44C111.825 624.813 111.718 625 111.505 625H108.913C107.996 625 107.345 624.781 106.961 624.344C106.577 623.896 106.385 623.176 106.385 622.184V613.448C106.385 613.203 106.598 613.08 107.025 613.08C107.452 613.08 107.665 613.203 107.665 613.448V622.184C107.665 622.803 107.756 623.24 107.937 623.496C108.129 623.752 108.454 623.88 108.913 623.88ZM115.024 615.688V623.128C115.024 623.469 115.104 623.789 115.264 624.088C115.424 624.376 115.504 624.525 115.504 624.536C115.504 624.664 115.403 624.803 115.2 624.952C114.998 625.091 114.827 625.16 114.688 625.16C114.464 625.16 114.251 624.968 114.048 624.584C113.846 624.189 113.744 623.757 113.744 623.288V615.688C113.744 615.443 113.958 615.32 114.384 615.32C114.811 615.32 115.024 615.443 115.024 615.688ZM115.072 612.28V613.672C115.072 613.939 114.838 614.072 114.368 614.072C113.91 614.072 113.68 613.939 113.68 613.672V612.28C113.68 612.013 113.91 611.88 114.368 611.88C114.838 611.88 115.072 612.013 115.072 612.28ZM123.901 618.168V617.544C123.901 616.701 123.213 616.28 121.837 616.28C121.251 616.28 120.771 616.376 120.397 616.568C120.024 616.76 119.837 617.064 119.837 617.48V617.832C119.837 618.408 119.912 618.787 120.061 618.968C120.211 619.139 120.531 619.283 121.021 619.4L122.413 619.752C123.736 620.093 124.52 620.424 124.765 620.744C125.064 621.139 125.213 621.661 125.213 622.312V622.888C125.213 623.72 124.888 624.323 124.237 624.696C123.597 625.059 122.765 625.24 121.741 625.24C120.077 625.24 119.021 624.819 118.573 623.976C118.392 623.624 118.301 623.197 118.301 622.696V622.184C118.301 622.045 118.349 621.955 118.445 621.912C118.541 621.859 118.707 621.832 118.941 621.832C119.357 621.832 119.565 621.965 119.565 622.232V622.952C119.565 623.379 119.752 623.683 120.125 623.864C120.499 624.035 121.043 624.12 121.757 624.12C123.219 624.12 123.949 623.747 123.949 623V622.152C123.949 621.821 123.821 621.565 123.565 621.384C123.32 621.203 122.893 621.032 122.285 620.872L120.877 620.52C119.928 620.285 119.304 620.008 119.005 619.688C118.717 619.357 118.573 618.723 118.573 617.784V617.592C118.595 616.739 118.899 616.12 119.485 615.736C120.072 615.352 120.845 615.16 121.805 615.16C124.045 615.16 125.165 615.992 125.165 617.656V618.216C125.165 618.44 124.952 618.552 124.525 618.552C124.109 618.552 123.901 618.424 123.901 618.168ZM130.571 613.528V615.4H132.251C132.464 615.4 132.571 615.587 132.571 615.96C132.571 616.333 132.464 616.52 132.251 616.52H130.571V623.128C130.571 623.469 130.651 623.789 130.811 624.088C130.971 624.376 131.051 624.525 131.051 624.536C131.051 624.664 130.949 624.803 130.747 624.952C130.544 625.091 130.373 625.16 130.235 625.16C130.011 625.16 129.797 624.968 129.595 624.584C129.392 624.189 129.291 623.757 129.291 623.288V616.52H128.011C127.797 616.52 127.691 616.333 127.691 615.96C127.691 615.587 127.797 615.4 128.011 615.4H129.291V613.528C129.291 613.283 129.504 613.16 129.931 613.16C130.357 613.16 130.571 613.283 130.571 613.528ZM141.655 617.656V618.136C141.655 619.043 141.468 619.667 141.095 620.008C140.722 620.349 140.039 620.568 139.047 620.664L135.927 620.968V622.872C135.927 623.704 136.62 624.12 138.007 624.12C139.586 624.12 140.375 623.757 140.375 623.032V622.424C140.375 622.179 140.588 622.056 141.015 622.056C141.442 622.056 141.655 622.179 141.655 622.424V622.872C141.655 624.451 140.482 625.24 138.135 625.24C137.1 625.24 136.258 625.037 135.607 624.632C134.967 624.227 134.647 623.587 134.647 622.712V617.688C134.647 616.803 134.988 616.163 135.671 615.768C136.354 615.363 137.244 615.16 138.343 615.16C139.442 615.16 140.268 615.352 140.823 615.736C141.378 616.12 141.655 616.76 141.655 617.656ZM135.927 617.528V619.848L138.935 619.544C139.543 619.48 139.932 619.352 140.103 619.16C140.284 618.968 140.375 618.627 140.375 618.136V617.528C140.375 616.696 139.634 616.28 138.151 616.28C136.668 616.28 135.927 616.696 135.927 617.528ZM151.938 617.688V624.712C151.938 624.957 151.725 625.08 151.298 625.08C150.871 625.08 150.658 624.957 150.658 624.712V617.528C150.658 616.696 149.927 616.28 148.466 616.28C147.015 616.28 146.29 616.696 146.29 617.528V624.712C146.29 624.957 146.077 625.08 145.65 625.08C145.223 625.08 145.01 624.957 145.01 624.712V617.688C145.01 616.803 145.325 616.163 145.954 615.768C146.583 615.363 147.421 615.16 148.466 615.16C149.511 615.16 150.349 615.363 150.978 615.768C151.618 616.163 151.938 616.803 151.938 617.688ZM163.305 613.528V615.4H164.985C165.198 615.4 165.305 615.587 165.305 615.96C165.305 616.333 165.198 616.52 164.985 616.52H163.305V623.128C163.305 623.469 163.385 623.789 163.545 624.088C163.705 624.376 163.785 624.525 163.785 624.536C163.785 624.664 163.684 624.803 163.481 624.952C163.278 625.091 163.108 625.16 162.969 625.16C162.745 625.16 162.532 624.968 162.329 624.584C162.126 624.189 162.025 623.757 162.025 623.288V616.52H160.745C160.532 616.52 160.425 616.333 160.425 615.96C160.425 615.587 160.532 615.4 160.745 615.4H162.025V613.528C162.025 613.283 162.238 613.16 162.665 613.16C163.092 613.16 163.305 613.283 163.305 613.528ZM173.029 622.872V617.528C173.029 616.696 172.299 616.28 170.837 616.28C169.387 616.28 168.661 616.696 168.661 617.528V622.872C168.661 623.704 169.387 624.12 170.837 624.12C172.299 624.12 173.029 623.704 173.029 622.872ZM174.309 617.688V622.712C174.309 623.597 173.995 624.243 173.365 624.648C172.736 625.043 171.899 625.24 170.853 625.24C169.808 625.24 168.965 625.043 168.325 624.648C167.696 624.243 167.381 623.597 167.381 622.712V617.688C167.381 616.803 167.696 616.163 168.325 615.768C168.955 615.363 169.792 615.16 170.837 615.16C171.883 615.16 172.72 615.363 173.349 615.768C173.989 616.163 174.309 616.803 174.309 617.688ZM185.508 613.528V615.4H187.188C187.401 615.4 187.508 615.587 187.508 615.96C187.508 616.333 187.401 616.52 187.188 616.52H185.508V623.128C185.508 623.469 185.588 623.789 185.748 624.088C185.908 624.376 185.988 624.525 185.988 624.536C185.988 624.664 185.887 624.803 185.684 624.952C185.481 625.091 185.311 625.16 185.172 625.16C184.948 625.16 184.735 624.968 184.532 624.584C184.329 624.189 184.228 623.757 184.228 623.288V616.52H182.948C182.735 616.52 182.628 616.333 182.628 615.96C182.628 615.587 182.735 615.4 182.948 615.4H184.228V613.528C184.228 613.283 184.441 613.16 184.868 613.16C185.295 613.16 185.508 613.283 185.508 613.528ZM196.832 617.688V624.712C196.832 624.957 196.619 625.08 196.192 625.08C195.766 625.08 195.552 624.957 195.552 624.712V617.528C195.552 616.696 194.822 616.28 193.36 616.28C191.91 616.28 191.184 616.696 191.184 617.528V624.712C191.184 624.957 190.971 625.08 190.544 625.08C190.118 625.08 189.904 624.957 189.904 624.712V612.568C189.904 612.323 190.118 612.2 190.544 612.2C190.971 612.2 191.184 612.323 191.184 612.568V615.816C191.771 615.379 192.539 615.16 193.488 615.16C194.448 615.16 195.243 615.363 195.872 615.768C196.512 616.163 196.832 616.803 196.832 617.688ZM207.202 617.656V618.136C207.202 619.043 207.015 619.667 206.642 620.008C206.268 620.349 205.586 620.568 204.594 620.664L201.474 620.968V622.872C201.474 623.704 202.167 624.12 203.554 624.12C205.132 624.12 205.922 623.757 205.922 623.032V622.424C205.922 622.179 206.135 622.056 206.562 622.056C206.988 622.056 207.202 622.179 207.202 622.424V622.872C207.202 624.451 206.028 625.24 203.682 625.24C202.647 625.24 201.804 625.037 201.154 624.632C200.514 624.227 200.194 623.587 200.194 622.712V617.688C200.194 616.803 200.535 616.163 201.218 615.768C201.9 615.363 202.791 615.16 203.89 615.16C204.988 615.16 205.815 615.352 206.37 615.736C206.924 616.12 207.202 616.76 207.202 617.656ZM201.474 617.528V619.848L204.482 619.544C205.09 619.48 205.479 619.352 205.65 619.16C205.831 618.968 205.922 618.627 205.922 618.136V617.528C205.922 616.696 205.18 616.28 203.698 616.28C202.215 616.28 201.474 616.696 201.474 617.528ZM218.559 619.4H219.951C221.401 619.4 222.127 618.984 222.127 618.152V615.288C222.127 614.456 221.396 614.04 219.935 614.04C218.484 614.04 217.759 614.456 217.759 615.288V624.712C217.759 624.957 217.545 625.08 217.119 625.08C216.692 625.08 216.479 624.957 216.479 624.712V615.448C216.479 614.563 216.793 613.923 217.423 613.528C218.052 613.123 218.889 612.92 219.935 612.92C220.98 612.92 221.817 613.123 222.447 613.528C223.087 613.923 223.407 614.563 223.407 615.448V617.992C223.407 618.877 223.092 619.523 222.463 619.928C221.833 620.323 220.996 620.52 219.951 620.52H218.559C218.345 620.52 218.239 620.333 218.239 619.96C218.239 619.587 218.345 619.4 218.559 619.4ZM231.779 622.872V617.528C231.779 616.696 231.049 616.28 229.587 616.28C228.137 616.28 227.411 616.696 227.411 617.528V622.872C227.411 623.704 228.137 624.12 229.587 624.12C231.049 624.12 231.779 623.704 231.779 622.872ZM233.059 617.688V622.712C233.059 623.597 232.745 624.243 232.115 624.648C231.486 625.043 230.649 625.24 229.603 625.24C228.558 625.24 227.715 625.043 227.075 624.648C226.446 624.243 226.131 623.597 226.131 622.712V617.688C226.131 616.803 226.446 616.163 227.075 615.768C227.705 615.363 228.542 615.16 229.587 615.16C230.633 615.16 231.47 615.363 232.099 615.768C232.739 616.163 233.059 616.803 233.059 617.688ZM243.184 612.568V622.712C243.184 623.597 242.87 624.243 242.24 624.648C241.611 625.043 240.774 625.24 239.728 625.24C238.683 625.24 237.84 625.043 237.2 624.648C236.571 624.243 236.256 623.597 236.256 622.712V617.928C236.256 617.043 236.571 616.403 237.2 616.008C237.83 615.603 238.667 615.4 239.712 615.4H241.104C241.318 615.4 241.424 615.587 241.424 615.96C241.424 616.333 241.318 616.52 241.104 616.52H239.712C238.262 616.52 237.536 616.936 237.536 617.768V622.872C237.536 623.704 238.262 624.12 239.712 624.12C241.174 624.12 241.904 623.704 241.904 622.872V612.568C241.904 612.323 242.118 612.2 242.544 612.2C242.971 612.2 243.184 612.323 243.184 612.568ZM247.818 617.528V622.872C247.818 623.704 248.5 624.12 249.866 624.12C251.231 624.12 251.914 623.704 251.914 622.872V622.2C251.914 621.955 252.127 621.832 252.554 621.832C252.98 621.832 253.194 621.955 253.194 622.2V622.712C253.194 623.597 252.89 624.243 252.282 624.648C251.684 625.043 250.879 625.24 249.866 625.24C248.863 625.24 248.058 625.043 247.45 624.648C246.842 624.243 246.538 623.597 246.538 622.712V617.688C246.538 616.803 246.842 616.163 247.45 615.768C248.058 615.363 248.863 615.16 249.866 615.16C250.879 615.16 251.684 615.363 252.282 615.768C252.89 616.163 253.194 616.803 253.194 617.688V618.2C253.194 618.445 252.98 618.568 252.554 618.568C252.127 618.568 251.914 618.445 251.914 618.2V617.528C251.914 616.696 251.231 616.28 249.866 616.28C248.5 616.28 247.818 616.696 247.818 617.528ZM260.277 625H258.405C257.466 625 256.789 624.808 256.373 624.424C255.957 624.04 255.749 623.389 255.749 622.472V622.344C255.749 621.437 255.935 620.813 256.309 620.472C256.682 620.131 257.349 619.912 258.309 619.816L261.077 619.544V617.768C261.077 616.936 260.351 616.52 258.901 616.52H256.709C256.495 616.52 256.389 616.333 256.389 615.96C256.389 615.587 256.495 615.4 256.709 615.4H258.901C259.946 615.4 260.783 615.603 261.413 616.008C262.042 616.403 262.357 617.043 262.357 617.928V622.648C262.357 623.341 262.479 623.891 262.725 624.296C262.799 624.424 262.837 624.504 262.837 624.536C262.837 624.664 262.735 624.803 262.533 624.952C262.33 625.091 262.159 625.16 262.021 625.16C261.786 625.16 261.567 624.941 261.365 624.504C261.173 624.056 261.077 623.491 261.077 622.808V620.664L258.405 620.936C257.829 621 257.455 621.128 257.285 621.32C257.114 621.512 257.029 621.853 257.029 622.344V622.472C257.029 622.984 257.114 623.347 257.285 623.56C257.466 623.773 257.839 623.88 258.405 623.88H260.277C260.49 623.88 260.597 624.067 260.597 624.44C260.597 624.813 260.49 625 260.277 625ZM271.229 618.168V617.544C271.229 616.701 270.541 616.28 269.165 616.28C268.579 616.28 268.099 616.376 267.725 616.568C267.352 616.76 267.165 617.064 267.165 617.48V617.832C267.165 618.408 267.24 618.787 267.389 618.968C267.539 619.139 267.859 619.283 268.349 619.4L269.741 619.752C271.064 620.093 271.848 620.424 272.093 620.744C272.392 621.139 272.541 621.661 272.541 622.312V622.888C272.541 623.72 272.216 624.323 271.565 624.696C270.925 625.059 270.093 625.24 269.069 625.24C267.405 625.24 266.349 624.819 265.901 623.976C265.72 623.624 265.629 623.197 265.629 622.696V622.184C265.629 622.045 265.677 621.955 265.773 621.912C265.869 621.859 266.035 621.832 266.269 621.832C266.685 621.832 266.893 621.965 266.893 622.232V622.952C266.893 623.379 267.08 623.683 267.453 623.864C267.827 624.035 268.371 624.12 269.085 624.12C270.547 624.12 271.277 623.747 271.277 623V622.152C271.277 621.821 271.149 621.565 270.893 621.384C270.648 621.203 270.221 621.032 269.613 620.872L268.205 620.52C267.256 620.285 266.632 620.008 266.333 619.688C266.045 619.357 265.901 618.723 265.901 617.784V617.592C265.923 616.739 266.227 616.12 266.813 615.736C267.4 615.352 268.173 615.16 269.133 615.16C271.373 615.16 272.493 615.992 272.493 617.656V618.216C272.493 618.44 272.28 618.552 271.853 618.552C271.437 618.552 271.229 618.424 271.229 618.168ZM277.899 613.528V615.4H279.579C279.792 615.4 279.899 615.587 279.899 615.96C279.899 616.333 279.792 616.52 279.579 616.52H277.899V623.128C277.899 623.469 277.979 623.789 278.139 624.088C278.299 624.376 278.379 624.525 278.379 624.536C278.379 624.664 278.277 624.803 278.075 624.952C277.872 625.091 277.701 625.16 277.563 625.16C277.339 625.16 277.125 624.968 276.923 624.584C276.72 624.189 276.619 623.757 276.619 623.288V616.52H275.339C275.125 616.52 275.019 616.333 275.019 615.96C275.019 615.587 275.125 615.4 275.339 615.4H276.619V613.528C276.619 613.283 276.832 613.16 277.259 613.16C277.685 613.16 277.899 613.283 277.899 613.528Z" fill="black"/>
</g>
</g>
<g id="Updates">
<g id="Rectangle 4" opacity="0.7" filter="url(#filter2_d)">
<rect x="46" y="691" width="293" height="64" rx="12" fill="#2BE0B2"/>
</g>
<g id="Subscribe for Updates" filter="url(#filter3_d)">
<path d="M106.578 728.872V727.064C106.578 726.712 106.439 726.456 106.162 726.296C105.884 726.136 105.404 725.976 104.722 725.816L103.298 725.496C102.647 725.347 102.156 725.181 101.826 725C101.122 724.627 100.77 723.853 100.77 722.68V721.448C100.77 720.563 101.084 719.923 101.714 719.528C102.354 719.123 103.196 718.92 104.242 718.92C105.287 718.92 106.124 719.123 106.754 719.528C107.383 719.923 107.698 720.563 107.698 721.448V722.152C107.698 722.397 107.484 722.52 107.058 722.52C106.631 722.52 106.418 722.397 106.418 722.152V721.288C106.418 720.456 105.687 720.04 104.226 720.04C102.775 720.04 102.05 720.456 102.05 721.288V722.648C102.05 723.235 102.135 723.64 102.306 723.864C102.487 724.077 102.818 724.237 103.298 724.344L104.722 724.664C105.746 724.888 106.327 725.043 106.466 725.128C106.615 725.203 106.786 725.288 106.978 725.384C107.17 725.48 107.298 725.581 107.362 725.688C107.436 725.784 107.522 725.907 107.618 726.056C107.778 726.301 107.858 726.68 107.858 727.192V728.712C107.858 729.587 107.506 730.227 106.802 730.632C106.108 731.037 105.228 731.24 104.162 731.24C103.106 731.24 102.236 731.037 101.554 730.632C100.882 730.227 100.546 729.587 100.546 728.712V728.008C100.546 727.763 100.759 727.64 101.186 727.64C101.612 727.64 101.826 727.763 101.826 728.008V728.872C101.826 729.309 102.044 729.629 102.482 729.832C102.93 730.024 103.49 730.12 104.162 730.12C104.844 730.12 105.415 730.019 105.874 729.816C106.343 729.613 106.578 729.299 106.578 728.872ZM117.829 721.688V728.712C117.829 729.597 117.509 730.243 116.869 730.648C116.239 731.043 115.402 731.24 114.357 731.24C113.311 731.24 112.474 731.043 111.845 730.648C111.215 730.243 110.901 729.597 110.901 728.712V721.688C110.901 721.443 111.114 721.32 111.541 721.32C111.967 721.32 112.181 721.443 112.181 721.688V728.872C112.181 729.704 112.906 730.12 114.357 730.12C115.818 730.12 116.549 729.704 116.549 728.872V721.688C116.549 721.443 116.762 721.32 117.189 721.32C117.615 721.32 117.829 721.443 117.829 721.688ZM124.826 722.52H123.434C123.22 722.52 123.114 722.333 123.114 721.96C123.114 721.587 123.22 721.4 123.434 721.4H124.826C125.871 721.4 126.708 721.603 127.338 722.008C127.967 722.403 128.282 723.043 128.282 723.928V728.712C128.282 729.597 127.962 730.243 127.322 730.648C126.692 731.043 125.855 731.24 124.81 731.24C123.764 731.24 122.927 731.043 122.298 730.648C121.668 730.243 121.354 729.597 121.354 728.712V718.568C121.354 718.323 121.567 718.2 121.994 718.2C122.42 718.2 122.634 718.323 122.634 718.568V728.872C122.634 729.704 123.359 730.12 124.81 730.12C126.271 730.12 127.002 729.704 127.002 728.872V723.768C127.002 722.936 126.276 722.52 124.826 722.52ZM136.995 724.168V723.544C136.995 722.701 136.307 722.28 134.931 722.28C134.344 722.28 133.864 722.376 133.491 722.568C133.118 722.76 132.931 723.064 132.931 723.48V723.832C132.931 724.408 133.006 724.787 133.155 724.968C133.304 725.139 133.624 725.283 134.115 725.4L135.507 725.752C136.83 726.093 137.614 726.424 137.859 726.744C138.158 727.139 138.307 727.661 138.307 728.312V728.888C138.307 729.72 137.982 730.323 137.331 730.696C136.691 731.059 135.859 731.24 134.835 731.24C133.171 731.24 132.115 730.819 131.667 729.976C131.486 729.624 131.395 729.197 131.395 728.696V728.184C131.395 728.045 131.443 727.955 131.539 727.912C131.635 727.859 131.8 727.832 132.035 727.832C132.451 727.832 132.659 727.965 132.659 728.232V728.952C132.659 729.379 132.846 729.683 133.219 729.864C133.592 730.035 134.136 730.12 134.851 730.12C136.312 730.12 137.043 729.747 137.043 729V728.152C137.043 727.821 136.915 727.565 136.659 727.384C136.414 727.203 135.987 727.032 135.379 726.872L133.971 726.52C133.022 726.285 132.398 726.008 132.099 725.688C131.811 725.357 131.667 724.723 131.667 723.784V723.592C131.688 722.739 131.992 722.12 132.579 721.736C133.166 721.352 133.939 721.16 134.899 721.16C137.139 721.16 138.259 721.992 138.259 723.656V724.216C138.259 724.44 138.046 724.552 137.619 724.552C137.203 724.552 136.995 724.424 136.995 724.168ZM142.864 723.528V728.872C142.864 729.704 143.547 730.12 144.912 730.12C146.278 730.12 146.96 729.704 146.96 728.872V728.2C146.96 727.955 147.174 727.832 147.6 727.832C148.027 727.832 148.24 727.955 148.24 728.2V728.712C148.24 729.597 147.936 730.243 147.328 730.648C146.731 731.043 145.926 731.24 144.912 731.24C143.91 731.24 143.104 731.043 142.496 730.648C141.888 730.243 141.584 729.597 141.584 728.712V723.688C141.584 722.803 141.888 722.163 142.496 721.768C143.104 721.363 143.91 721.16 144.912 721.16C145.926 721.16 146.731 721.363 147.328 721.768C147.936 722.163 148.24 722.803 148.24 723.688V724.2C148.24 724.445 148.027 724.568 147.6 724.568C147.174 724.568 146.96 724.445 146.96 724.2V723.528C146.96 722.696 146.278 722.28 144.912 722.28C143.547 722.28 142.864 722.696 142.864 723.528ZM155.532 724.328V723.528C155.532 722.696 155.036 722.28 154.044 722.28C153.052 722.28 152.556 722.696 152.556 723.528V730.872C152.556 731.117 152.342 731.24 151.916 731.24C151.489 731.24 151.276 731.117 151.276 730.872V723.688C151.276 722.803 151.526 722.163 152.028 721.768C152.54 721.363 153.212 721.16 154.044 721.16C155.889 721.16 156.812 721.992 156.812 723.656V724.328C156.812 724.573 156.598 724.696 156.172 724.696C155.745 724.696 155.532 724.573 155.532 724.328ZM160.165 721.688V729.128C160.165 729.469 160.245 729.789 160.405 730.088C160.565 730.376 160.645 730.525 160.645 730.536C160.645 730.664 160.544 730.803 160.341 730.952C160.138 731.091 159.968 731.16 159.829 731.16C159.605 731.16 159.392 730.968 159.189 730.584C158.986 730.189 158.885 729.757 158.885 729.288V721.688C158.885 721.443 159.098 721.32 159.525 721.32C159.952 721.32 160.165 721.443 160.165 721.688ZM160.213 718.28V719.672C160.213 719.939 159.978 720.072 159.509 720.072C159.05 720.072 158.821 719.939 158.821 719.672V718.28C158.821 718.013 159.05 717.88 159.509 717.88C159.978 717.88 160.213 718.013 160.213 718.28ZM167.154 722.52H165.762C165.549 722.52 165.442 722.333 165.442 721.96C165.442 721.587 165.549 721.4 165.762 721.4H167.154C168.199 721.4 169.037 721.603 169.666 722.008C170.295 722.403 170.61 723.043 170.61 723.928V728.712C170.61 729.597 170.29 730.243 169.65 730.648C169.021 731.043 168.183 731.24 167.138 731.24C166.093 731.24 165.255 731.043 164.626 730.648C163.997 730.243 163.682 729.597 163.682 728.712V718.568C163.682 718.323 163.895 718.2 164.322 718.2C164.749 718.2 164.962 718.323 164.962 718.568V728.872C164.962 729.704 165.687 730.12 167.138 730.12C168.599 730.12 169.33 729.704 169.33 728.872V723.768C169.33 722.936 168.605 722.52 167.154 722.52ZM180.811 723.656V724.136C180.811 725.043 180.624 725.667 180.251 726.008C179.878 726.349 179.195 726.568 178.203 726.664L175.083 726.968V728.872C175.083 729.704 175.776 730.12 177.163 730.12C178.742 730.12 179.531 729.757 179.531 729.032V728.424C179.531 728.179 179.744 728.056 180.171 728.056C180.598 728.056 180.811 728.179 180.811 728.424V728.872C180.811 730.451 179.638 731.24 177.291 731.24C176.256 731.24 175.414 731.037 174.763 730.632C174.123 730.227 173.803 729.587 173.803 728.712V723.688C173.803 722.803 174.144 722.163 174.827 721.768C175.51 721.363 176.4 721.16 177.499 721.16C178.598 721.16 179.424 721.352 179.979 721.736C180.534 722.12 180.811 722.76 180.811 723.656ZM175.083 723.528V725.848L178.091 725.544C178.699 725.48 179.088 725.352 179.259 725.16C179.44 724.968 179.531 724.627 179.531 724.136V723.528C179.531 722.696 178.79 722.28 177.307 722.28C175.824 722.28 175.083 722.696 175.083 723.528ZM189.608 721.4H190.728V720.488C190.728 718.803 191.827 717.96 194.024 717.96H194.584C194.797 717.96 194.904 718.147 194.904 718.52C194.904 718.893 194.797 719.08 194.584 719.08H194.024C192.68 719.08 192.008 719.496 192.008 720.328V721.4H193.848C194.061 721.4 194.168 721.587 194.168 721.96C194.168 722.333 194.061 722.52 193.848 722.52H192.008V732.648C192.008 733.331 191.907 733.891 191.704 734.328C191.512 734.776 191.299 735 191.064 735C190.925 735 190.755 734.925 190.552 734.776C190.349 734.637 190.248 734.504 190.248 734.376C190.248 734.344 190.291 734.264 190.376 734.136C190.611 733.731 190.728 733.181 190.728 732.488V722.52H189.608C189.395 722.52 189.288 722.333 189.288 721.96C189.288 721.587 189.395 721.4 189.608 721.4ZM201.732 728.872V723.528C201.732 722.696 201.002 722.28 199.54 722.28C198.09 722.28 197.364 722.696 197.364 723.528V728.872C197.364 729.704 198.09 730.12 199.54 730.12C201.002 730.12 201.732 729.704 201.732 728.872ZM203.012 723.688V728.712C203.012 729.597 202.698 730.243 202.068 730.648C201.439 731.043 200.602 731.24 199.556 731.24C198.511 731.24 197.668 731.043 197.028 730.648C196.399 730.243 196.084 729.597 196.084 728.712V723.688C196.084 722.803 196.399 722.163 197.028 721.768C197.658 721.363 198.495 721.16 199.54 721.16C200.586 721.16 201.423 721.363 202.052 721.768C202.692 722.163 203.012 722.803 203.012 723.688ZM210.625 724.328V723.528C210.625 722.696 210.129 722.28 209.137 722.28C208.145 722.28 207.649 722.696 207.649 723.528V730.872C207.649 731.117 207.436 731.24 207.009 731.24C206.583 731.24 206.369 731.117 206.369 730.872V723.688C206.369 722.803 206.62 722.163 207.121 721.768C207.633 721.363 208.305 721.16 209.137 721.16C210.983 721.16 211.905 721.992 211.905 723.656V724.328C211.905 724.573 211.692 724.696 211.265 724.696C210.839 724.696 210.625 724.573 210.625 724.328ZM221.181 728.872C221.181 729.704 221.986 730.12 223.597 730.12C225.218 730.12 226.029 729.704 226.029 728.872V719.448C226.029 719.203 226.242 719.08 226.669 719.08C227.095 719.08 227.309 719.203 227.309 719.448V728.712C227.309 729.597 226.962 730.243 226.269 730.648C225.586 731.043 224.679 731.24 223.549 731.24C221.117 731.24 219.901 730.397 219.901 728.712V719.448C219.901 719.203 220.109 719.08 220.525 719.08C220.951 719.08 221.165 719.203 221.165 719.448L221.181 728.872ZM232.903 729.88H234.295C235.745 729.88 236.471 729.464 236.471 728.632V723.528C236.471 722.696 235.74 722.28 234.279 722.28C232.828 722.28 232.103 722.696 232.103 723.528V734.712C232.103 734.957 231.889 735.08 231.463 735.08C231.036 735.08 230.823 734.957 230.823 734.712V723.688C230.823 722.803 231.137 722.163 231.767 721.768C232.396 721.363 233.233 721.16 234.279 721.16C235.324 721.16 236.161 721.363 236.791 721.768C237.431 722.163 237.751 722.803 237.751 723.688V728.472C237.751 729.357 237.436 730.003 236.807 730.408C236.177 730.803 235.34 731 234.295 731H232.903C232.689 731 232.583 730.813 232.583 730.44C232.583 730.067 232.689 729.88 232.903 729.88ZM247.872 718.568V728.712C247.872 729.597 247.557 730.243 246.928 730.648C246.298 731.043 245.461 731.24 244.416 731.24C243.37 731.24 242.528 731.043 241.888 730.648C241.258 730.243 240.944 729.597 240.944 728.712V723.928C240.944 723.043 241.258 722.403 241.888 722.008C242.517 721.603 243.354 721.4 244.4 721.4H245.792C246.005 721.4 246.112 721.587 246.112 721.96C246.112 722.333 246.005 722.52 245.792 722.52H244.4C242.949 722.52 242.224 722.936 242.224 723.768V728.872C242.224 729.704 242.949 730.12 244.4 730.12C245.861 730.12 246.592 729.704 246.592 728.872V718.568C246.592 718.323 246.805 718.2 247.232 718.2C247.658 718.2 247.872 718.323 247.872 718.568ZM255.433 731H253.561C252.622 731 251.945 730.808 251.529 730.424C251.113 730.04 250.905 729.389 250.905 728.472V728.344C250.905 727.437 251.092 726.813 251.465 726.472C251.838 726.131 252.505 725.912 253.465 725.816L256.233 725.544V723.768C256.233 722.936 255.508 722.52 254.057 722.52H251.865C251.652 722.52 251.545 722.333 251.545 721.96C251.545 721.587 251.652 721.4 251.865 721.4H254.057C255.102 721.4 255.94 721.603 256.569 722.008C257.198 722.403 257.513 723.043 257.513 723.928V728.648C257.513 729.341 257.636 729.891 257.881 730.296C257.956 730.424 257.993 730.504 257.993 730.536C257.993 730.664 257.892 730.803 257.689 730.952C257.486 731.091 257.316 731.16 257.177 731.16C256.942 731.16 256.724 730.941 256.521 730.504C256.329 730.056 256.233 729.491 256.233 728.808V726.664L253.561 726.936C252.985 727 252.612 727.128 252.441 727.32C252.27 727.512 252.185 727.853 252.185 728.344V728.472C252.185 728.984 252.27 729.347 252.441 729.56C252.622 729.773 252.996 729.88 253.561 729.88H255.433C255.646 729.88 255.753 730.067 255.753 730.44C255.753 730.813 255.646 731 255.433 731ZM262.946 719.528V721.4H264.626C264.839 721.4 264.946 721.587 264.946 721.96C264.946 722.333 264.839 722.52 264.626 722.52H262.946V729.128C262.946 729.469 263.026 729.789 263.186 730.088C263.346 730.376 263.426 730.525 263.426 730.536C263.426 730.664 263.324 730.803 263.122 730.952C262.919 731.091 262.748 731.16 262.61 731.16C262.386 731.16 262.172 730.968 261.97 730.584C261.767 730.189 261.666 729.757 261.666 729.288V722.52H260.386C260.172 722.52 260.066 722.333 260.066 721.96C260.066 721.587 260.172 721.4 260.386 721.4H261.666V719.528C261.666 719.283 261.879 719.16 262.306 719.16C262.732 719.16 262.946 719.283 262.946 719.528ZM274.03 723.656V724.136C274.03 725.043 273.843 725.667 273.47 726.008C273.097 726.349 272.414 726.568 271.422 726.664L268.302 726.968V728.872C268.302 729.704 268.995 730.12 270.382 730.12C271.961 730.12 272.75 729.757 272.75 729.032V728.424C272.75 728.179 272.963 728.056 273.39 728.056C273.817 728.056 274.03 728.179 274.03 728.424V728.872C274.03 730.451 272.857 731.24 270.51 731.24C269.475 731.24 268.633 731.037 267.982 730.632C267.342 730.227 267.022 729.587 267.022 728.712V723.688C267.022 722.803 267.363 722.163 268.046 721.768C268.729 721.363 269.619 721.16 270.718 721.16C271.817 721.16 272.643 721.352 273.198 721.736C273.753 722.12 274.03 722.76 274.03 723.656ZM268.302 723.528V725.848L271.31 725.544C271.918 725.48 272.307 725.352 272.478 725.16C272.659 724.968 272.75 724.627 272.75 724.136V723.528C272.75 722.696 272.009 722.28 270.526 722.28C269.043 722.28 268.302 722.696 268.302 723.528ZM282.745 724.168V723.544C282.745 722.701 282.057 722.28 280.681 722.28C280.094 722.28 279.614 722.376 279.241 722.568C278.868 722.76 278.681 723.064 278.681 723.48V723.832C278.681 724.408 278.756 724.787 278.905 724.968C279.054 725.139 279.374 725.283 279.865 725.4L281.257 725.752C282.58 726.093 283.364 726.424 283.609 726.744C283.908 727.139 284.057 727.661 284.057 728.312V728.888C284.057 729.72 283.732 730.323 283.081 730.696C282.441 731.059 281.609 731.24 280.585 731.24C278.921 731.24 277.865 730.819 277.417 729.976C277.236 729.624 277.145 729.197 277.145 728.696V728.184C277.145 728.045 277.193 727.955 277.289 727.912C277.385 727.859 277.55 727.832 277.785 727.832C278.201 727.832 278.409 727.965 278.409 728.232V728.952C278.409 729.379 278.596 729.683 278.969 729.864C279.342 730.035 279.886 730.12 280.601 730.12C282.062 730.12 282.793 729.747 282.793 729V728.152C282.793 727.821 282.665 727.565 282.409 727.384C282.164 727.203 281.737 727.032 281.129 726.872L279.721 726.52C278.772 726.285 278.148 726.008 277.849 725.688C277.561 725.357 277.417 724.723 277.417 723.784V723.592C277.438 722.739 277.742 722.12 278.329 721.736C278.916 721.352 279.689 721.16 280.649 721.16C282.889 721.16 284.009 721.992 284.009 723.656V724.216C284.009 724.44 283.796 724.552 283.369 724.552C282.953 724.552 282.745 724.424 282.745 724.168Z" fill="black"/>
</g>
</g>
<g id="Submit">
<g id="Rectangle 4_2" opacity="0.7" filter="url(#filter4_d)">
<rect x="46" y="485" width="293" height="64" rx="12" fill="#2BE0B2"/>
</g>
<g id="Submit Contact Form" filter="url(#filter5_d)">
<path d="M113.773 519.872V518.064C113.773 517.712 113.634 517.456 113.357 517.296C113.08 517.136 112.6 516.976 111.917 516.816L110.493 516.496C109.842 516.347 109.352 516.181 109.021 516C108.317 515.627 107.965 514.853 107.965 513.68V512.448C107.965 511.563 108.28 510.923 108.909 510.528C109.549 510.123 110.392 509.92 111.437 509.92C112.482 509.92 113.32 510.123 113.949 510.528C114.578 510.923 114.893 511.563 114.893 512.448V513.152C114.893 513.397 114.68 513.52 114.253 513.52C113.826 513.52 113.613 513.397 113.613 513.152V512.288C113.613 511.456 112.882 511.04 111.421 511.04C109.97 511.04 109.245 511.456 109.245 512.288V513.648C109.245 514.235 109.33 514.64 109.501 514.864C109.682 515.077 110.013 515.237 110.493 515.344L111.917 515.664C112.941 515.888 113.522 516.043 113.661 516.128C113.81 516.203 113.981 516.288 114.173 516.384C114.365 516.48 114.493 516.581 114.557 516.688C114.632 516.784 114.717 516.907 114.813 517.056C114.973 517.301 115.053 517.68 115.053 518.192V519.712C115.053 520.587 114.701 521.227 113.997 521.632C113.304 522.037 112.424 522.24 111.357 522.24C110.301 522.24 109.432 522.037 108.749 521.632C108.077 521.227 107.741 520.587 107.741 519.712V519.008C107.741 518.763 107.954 518.64 108.381 518.64C108.808 518.64 109.021 518.763 109.021 519.008V519.872C109.021 520.309 109.24 520.629 109.677 520.832C110.125 521.024 110.685 521.12 111.357 521.12C112.04 521.12 112.61 521.019 113.069 520.816C113.538 520.613 113.773 520.299 113.773 519.872ZM125.024 512.688V519.712C125.024 520.597 124.704 521.243 124.064 521.648C123.435 522.043 122.597 522.24 121.552 522.24C120.507 522.24 119.669 522.043 119.04 521.648C118.411 521.243 118.096 520.597 118.096 519.712V512.688C118.096 512.443 118.309 512.32 118.736 512.32C119.163 512.32 119.376 512.443 119.376 512.688V519.872C119.376 520.704 120.101 521.12 121.552 521.12C123.013 521.12 123.744 520.704 123.744 519.872V512.688C123.744 512.443 123.957 512.32 124.384 512.32C124.811 512.32 125.024 512.443 125.024 512.688ZM132.021 513.52H130.629C130.416 513.52 130.309 513.333 130.309 512.96C130.309 512.587 130.416 512.4 130.629 512.4H132.021C133.066 512.4 133.904 512.603 134.533 513.008C135.162 513.403 135.477 514.043 135.477 514.928V519.712C135.477 520.597 135.157 521.243 134.517 521.648C133.888 522.043 133.05 522.24 132.005 522.24C130.96 522.24 130.122 522.043 129.493 521.648C128.864 521.243 128.549 520.597 128.549 519.712V509.568C128.549 509.323 128.762 509.2 129.189 509.2C129.616 509.2 129.829 509.323 129.829 509.568V519.872C129.829 520.704 130.554 521.12 132.005 521.12C133.466 521.12 134.197 520.704 134.197 519.872V514.768C134.197 513.936 133.472 513.52 132.021 513.52ZM138.83 521.712V514.688C138.83 513.813 139.134 513.173 139.742 512.768C140.361 512.363 141.214 512.16 142.302 512.16C143.39 512.16 144.222 512.443 144.798 513.008C145.364 512.443 146.19 512.16 147.278 512.16C149.604 512.16 150.766 513.003 150.766 514.688V521.712C150.766 521.957 150.553 522.08 150.126 522.08C149.7 522.08 149.486 521.957 149.486 521.712V514.528C149.486 513.696 148.809 513.28 147.454 513.28C146.11 513.28 145.438 513.707 145.438 514.56V521.712C145.438 521.957 145.225 522.08 144.798 522.08C144.372 522.08 144.158 521.957 144.158 521.712V514.528C144.158 513.696 143.481 513.28 142.126 513.28C140.782 513.28 140.11 513.696 140.11 514.528V521.712C140.11 521.957 139.897 522.08 139.47 522.08C139.044 522.08 138.83 521.957 138.83 521.712ZM155.563 512.688V520.128C155.563 520.469 155.643 520.789 155.803 521.088C155.963 521.376 156.043 521.525 156.043 521.536C156.043 521.664 155.942 521.803 155.739 521.952C155.537 522.091 155.366 522.16 155.227 522.16C155.003 522.16 154.79 521.968 154.587 521.584C154.385 521.189 154.283 520.757 154.283 520.288V512.688C154.283 512.443 154.497 512.32 154.923 512.32C155.35 512.32 155.563 512.443 155.563 512.688ZM155.611 509.28V510.672C155.611 510.939 155.377 511.072 154.907 511.072C154.449 511.072 154.219 510.939 154.219 510.672V509.28C154.219 509.013 154.449 508.88 154.907 508.88C155.377 508.88 155.611 509.013 155.611 509.28ZM161 510.528V512.4H162.68C162.894 512.4 163 512.587 163 512.96C163 513.333 162.894 513.52 162.68 513.52H161V520.128C161 520.469 161.08 520.789 161.24 521.088C161.4 521.376 161.48 521.525 161.48 521.536C161.48 521.664 161.379 521.803 161.176 521.952C160.974 522.091 160.803 522.16 160.664 522.16C160.44 522.16 160.227 521.968 160.024 521.584C159.822 521.189 159.72 520.757 159.72 520.288V513.52H158.44C158.227 513.52 158.12 513.333 158.12 512.96C158.12 512.587 158.227 512.4 158.44 512.4H159.72V510.528C159.72 510.283 159.934 510.16 160.36 510.16C160.787 510.16 161 510.283 161 510.528ZM172.278 512.288V519.872C172.278 520.704 173.057 521.12 174.614 521.12C176.182 521.12 176.966 520.704 176.966 519.872V518.72C176.966 518.475 177.18 518.352 177.606 518.352C178.033 518.352 178.246 518.475 178.246 518.72V519.712C178.246 521.397 177.057 522.24 174.678 522.24C173.569 522.24 172.678 522.043 172.006 521.648C171.334 521.243 170.998 520.597 170.998 519.712V512.448C170.998 511.563 171.334 510.923 172.006 510.528C172.678 510.123 173.569 509.92 174.678 509.92C177.057 509.92 178.246 510.763 178.246 512.448V513.44C178.246 513.685 178.033 513.808 177.606 513.808C177.18 513.808 176.966 513.685 176.966 513.44V512.288C176.966 511.456 176.182 511.04 174.614 511.04C173.057 511.04 172.278 511.456 172.278 512.288ZM186.771 519.872V514.528C186.771 513.696 186.041 513.28 184.579 513.28C183.129 513.28 182.403 513.696 182.403 514.528V519.872C182.403 520.704 183.129 521.12 184.579 521.12C186.041 521.12 186.771 520.704 186.771 519.872ZM188.051 514.688V519.712C188.051 520.597 187.737 521.243 187.107 521.648C186.478 522.043 185.641 522.24 184.595 522.24C183.55 522.24 182.707 522.043 182.067 521.648C181.438 521.243 181.123 520.597 181.123 519.712V514.688C181.123 513.803 181.438 513.163 182.067 512.768C182.697 512.363 183.534 512.16 184.579 512.16C185.625 512.16 186.462 512.363 187.091 512.768C187.731 513.163 188.051 513.803 188.051 514.688ZM198.336 514.688V521.712C198.336 521.957 198.123 522.08 197.696 522.08C197.27 522.08 197.056 521.957 197.056 521.712V514.528C197.056 513.696 196.326 513.28 194.864 513.28C193.414 513.28 192.688 513.696 192.688 514.528V521.712C192.688 521.957 192.475 522.08 192.048 522.08C191.622 522.08 191.408 521.957 191.408 521.712V514.688C191.408 513.803 191.723 513.163 192.352 512.768C192.982 512.363 193.819 512.16 194.864 512.16C195.91 512.16 196.747 512.363 197.376 512.768C198.016 513.163 198.336 513.803 198.336 514.688ZM203.782 510.528V512.4H205.462C205.675 512.4 205.782 512.587 205.782 512.96C205.782 513.333 205.675 513.52 205.462 513.52H203.782V520.128C203.782 520.469 203.862 520.789 204.022 521.088C204.182 521.376 204.262 521.525 204.262 521.536C204.262 521.664 204.16 521.803 203.958 521.952C203.755 522.091 203.584 522.16 203.446 522.16C203.222 522.16 203.008 521.968 202.806 521.584C202.603 521.189 202.502 520.757 202.502 520.288V513.52H201.222C201.008 513.52 200.902 513.333 200.902 512.96C200.902 512.587 201.008 512.4 201.222 512.4H202.502V510.528C202.502 510.283 202.715 510.16 203.142 510.16C203.568 510.16 203.782 510.283 203.782 510.528ZM212.066 522H210.194C209.255 522 208.578 521.808 208.162 521.424C207.746 521.04 207.538 520.389 207.538 519.472V519.344C207.538 518.437 207.724 517.813 208.098 517.472C208.471 517.131 209.138 516.912 210.098 516.816L212.866 516.544V514.768C212.866 513.936 212.14 513.52 210.69 513.52H208.498C208.284 513.52 208.178 513.333 208.178 512.96C208.178 512.587 208.284 512.4 208.498 512.4H210.69C211.735 512.4 212.572 512.603 213.202 513.008C213.831 513.403 214.146 514.043 214.146 514.928V519.648C214.146 520.341 214.268 520.891 214.514 521.296C214.588 521.424 214.626 521.504 214.626 521.536C214.626 521.664 214.524 521.803 214.322 521.952C214.119 522.091 213.948 522.16 213.81 522.16C213.575 522.16 213.356 521.941 213.154 521.504C212.962 521.056 212.866 520.491 212.866 519.808V517.664L210.194 517.936C209.618 518 209.244 518.128 209.074 518.32C208.903 518.512 208.818 518.853 208.818 519.344V519.472C208.818 519.984 208.903 520.347 209.074 520.56C209.255 520.773 209.628 520.88 210.194 520.88H212.066C212.279 520.88 212.386 521.067 212.386 521.44C212.386 521.813 212.279 522 212.066 522ZM218.778 514.528V519.872C218.778 520.704 219.461 521.12 220.826 521.12C222.192 521.12 222.874 520.704 222.874 519.872V519.2C222.874 518.955 223.088 518.832 223.514 518.832C223.941 518.832 224.154 518.955 224.154 519.2V519.712C224.154 520.597 223.85 521.243 223.242 521.648C222.645 522.043 221.84 522.24 220.826 522.24C219.824 522.24 219.018 522.043 218.41 521.648C217.802 521.243 217.498 520.597 217.498 519.712V514.688C217.498 513.803 217.802 513.163 218.41 512.768C219.018 512.363 219.824 512.16 220.826 512.16C221.84 512.16 222.645 512.363 223.242 512.768C223.85 513.163 224.154 513.803 224.154 514.688V515.2C224.154 515.445 223.941 515.568 223.514 515.568C223.088 515.568 222.874 515.445 222.874 515.2V514.528C222.874 513.696 222.192 513.28 220.826 513.28C219.461 513.28 218.778 513.696 218.778 514.528ZM229.11 510.528V512.4H230.79C231.003 512.4 231.11 512.587 231.11 512.96C231.11 513.333 231.003 513.52 230.79 513.52H229.11V520.128C229.11 520.469 229.19 520.789 229.35 521.088C229.51 521.376 229.59 521.525 229.59 521.536C229.59 521.664 229.488 521.803 229.286 521.952C229.083 522.091 228.912 522.16 228.774 522.16C228.55 522.16 228.336 521.968 228.134 521.584C227.931 521.189 227.83 520.757 227.83 520.288V513.52H226.55C226.336 513.52 226.23 513.333 226.23 512.96C226.23 512.587 226.336 512.4 226.55 512.4H227.83V510.528C227.83 510.283 228.043 510.16 228.47 510.16C228.896 510.16 229.11 510.283 229.11 510.528ZM244.228 516.464H240.548V521.712C240.548 521.957 240.334 522.08 239.908 522.08C239.481 522.08 239.268 521.957 239.268 521.712V512.976C239.268 511.984 239.46 511.269 239.844 510.832C240.228 510.384 240.878 510.16 241.796 510.16H244.868C245.081 510.16 245.188 510.347 245.188 510.72C245.188 511.093 245.081 511.28 244.868 511.28H241.796C241.337 511.28 241.012 511.408 240.82 511.664C240.638 511.92 240.548 512.357 240.548 512.976V515.344H244.228C244.441 515.344 244.548 515.531 244.548 515.904C244.548 516.277 244.441 516.464 244.228 516.464ZM252.6 519.872V514.528C252.6 513.696 251.869 513.28 250.408 513.28C248.957 513.28 248.232 513.696 248.232 514.528V519.872C248.232 520.704 248.957 521.12 250.408 521.12C251.869 521.12 252.6 520.704 252.6 519.872ZM253.88 514.688V519.712C253.88 520.597 253.565 521.243 252.936 521.648C252.306 522.043 251.469 522.24 250.424 522.24C249.378 522.24 248.536 522.043 247.896 521.648C247.266 521.243 246.952 520.597 246.952 519.712V514.688C246.952 513.803 247.266 513.163 247.896 512.768C248.525 512.363 249.362 512.16 250.408 512.16C251.453 512.16 252.29 512.363 252.92 512.768C253.56 513.163 253.88 513.803 253.88 514.688ZM261.493 515.328V514.528C261.493 513.696 260.997 513.28 260.005 513.28C259.013 513.28 258.517 513.696 258.517 514.528V521.872C258.517 522.117 258.303 522.24 257.877 522.24C257.45 522.24 257.237 522.117 257.237 521.872V514.688C257.237 513.803 257.487 513.163 257.989 512.768C258.501 512.363 259.173 512.16 260.005 512.16C261.85 512.16 262.773 512.992 262.773 514.656V515.328C262.773 515.573 262.559 515.696 262.133 515.696C261.706 515.696 261.493 515.573 261.493 515.328ZM264.846 521.712V514.688C264.846 513.813 265.15 513.173 265.758 512.768C266.377 512.363 267.23 512.16 268.318 512.16C269.406 512.16 270.238 512.443 270.814 513.008C271.379 512.443 272.206 512.16 273.294 512.16C275.619 512.16 276.782 513.003 276.782 514.688V521.712C276.782 521.957 276.569 522.08 276.142 522.08C275.715 522.08 275.502 521.957 275.502 521.712V514.528C275.502 513.696 274.825 513.28 273.47 513.28C272.126 513.28 271.454 513.707 271.454 514.56V521.712C271.454 521.957 271.241 522.08 270.814 522.08C270.387 522.08 270.174 521.957 270.174 521.712V514.528C270.174 513.696 269.497 513.28 268.142 513.28C266.798 513.28 266.126 513.696 266.126 514.528V521.712C266.126 521.957 265.913 522.08 265.486 522.08C265.059 522.08 264.846 521.957 264.846 521.712Z" fill="black"/>
</g>
</g>
<g id="MessageInput">
<g id="Rectangle 5" opacity="0.7" filter="url(#filter6_d)">
<rect x="41" y="287" width="293" height="177" rx="12" fill="#2BE0B2"/>
</g>
</g>
<g id="EmailInput">
<g id="Rectangle 4_3" opacity="0.7" filter="url(#filter7_d)">
<rect x="41" y="180" width="293" height="64" rx="12" fill="#2BE0B2"/>
</g>
</g>
<input type="string">
<g id="NameInput">
<g id="Rectangle 3" opacity="0.7" filter="url(#filter8_d)">
<rect x="41" y="73" width="293" height="64" rx="12" fill="#2BE0B2"/>
</g>
</g>
<g id="Contact Texts">
<g id="CONTACT US" filter="url(#filter9_d)">
<path d="M131.159 21.86V31.34C131.159 32.38 132.132 32.9 134.079 32.9C136.039 32.9 137.019 32.38 137.019 31.34V29.9C137.019 29.5933 137.285 29.44 137.819 29.44C138.352 29.44 138.619 29.5933 138.619 29.9V31.14C138.619 33.2467 137.132 34.3 134.159 34.3C132.772 34.3 131.659 34.0533 130.819 33.56C129.979 33.0533 129.559 32.2467 129.559 31.14V22.06C129.559 20.9533 129.979 20.1533 130.819 19.66C131.659 19.1533 132.772 18.9 134.159 18.9C137.132 18.9 138.619 19.9533 138.619 22.06V23.3C138.619 23.6067 138.352 23.76 137.819 23.76C137.285 23.76 137.019 23.6067 137.019 23.3V21.86C137.019 20.82 136.039 20.3 134.079 20.3C132.132 20.3 131.159 20.82 131.159 21.86ZM151.475 22.06V31.14C151.475 32.2467 151.042 33.0533 150.175 33.56C149.322 34.0533 148.188 34.3 146.775 34.3C143.735 34.3 142.215 33.2467 142.215 31.14V22.06C142.215 20.9533 142.642 20.1533 143.495 19.66C144.362 19.1533 145.502 18.9 146.915 18.9C149.955 18.9 151.475 19.9533 151.475 22.06ZM143.815 21.86V31.34C143.815 32.38 144.822 32.9 146.835 32.9C148.862 32.9 149.875 32.38 149.875 31.34V21.86C149.875 20.82 148.862 20.3 146.835 20.3C144.822 20.3 143.815 20.82 143.815 21.86ZM157.477 20.6H157.277V33.64C157.277 33.9467 157.01 34.1 156.477 34.1C155.943 34.1 155.677 33.9467 155.677 33.64V20.7C155.677 20.1133 155.743 19.72 155.877 19.52C156.023 19.3067 156.357 19.2 156.877 19.2H157.317C158.25 19.2 158.877 19.3067 159.197 19.52C159.517 19.7333 159.783 20.2667 159.997 21.12L162.597 31.62C162.717 32.1 162.83 32.4 162.937 32.52C163.043 32.64 163.31 32.7 163.737 32.7H163.937V19.66C163.937 19.3533 164.203 19.2 164.737 19.2C165.27 19.2 165.537 19.3533 165.537 19.66V32.6C165.537 33.1867 165.463 33.5867 165.317 33.8C165.183 34 164.857 34.1 164.337 34.1H163.897C162.963 34.1 162.337 33.9933 162.017 33.78C161.697 33.5667 161.43 33.0333 161.217 32.18L158.617 21.68C158.497 21.2 158.383 20.9 158.277 20.78C158.17 20.66 157.903 20.6 157.477 20.6ZM168.534 19.2H176.934C177.201 19.2 177.334 19.4333 177.334 19.9C177.334 20.3667 177.201 20.6 176.934 20.6H173.534V33.64C173.534 33.9467 173.268 34.1 172.734 34.1C172.201 34.1 171.934 33.9467 171.934 33.64V20.6H168.534C168.268 20.6 168.134 20.3667 168.134 19.9C168.134 19.4333 168.268 19.2 168.534 19.2ZM189.194 22.06V33.64C189.194 33.9467 188.928 34.1 188.394 34.1C187.861 34.1 187.594 33.9467 187.594 33.64V28.22H181.534V33.64C181.534 33.9467 181.268 34.1 180.734 34.1C180.201 34.1 179.934 33.9467 179.934 33.64V22.06C179.934 21.3133 180.154 20.7 180.594 20.22C181.034 19.7267 181.594 19.3867 182.274 19.2C182.954 19 183.754 18.9 184.674 18.9C187.688 18.9 189.194 19.9533 189.194 22.06ZM181.534 21.86V26.82H187.594V21.86C187.594 20.82 186.581 20.3 184.554 20.3C182.541 20.3 181.534 20.82 181.534 21.86ZM194.987 21.86V31.34C194.987 32.38 195.96 32.9 197.907 32.9C199.867 32.9 200.847 32.38 200.847 31.34V29.9C200.847 29.5933 201.113 29.44 201.647 29.44C202.18 29.44 202.447 29.5933 202.447 29.9V31.14C202.447 33.2467 200.96 34.3 197.987 34.3C196.6 34.3 195.487 34.0533 194.647 33.56C193.807 33.0533 193.387 32.2467 193.387 31.14V22.06C193.387 20.9533 193.807 20.1533 194.647 19.66C195.487 19.1533 196.6 18.9 197.987 18.9C200.96 18.9 202.447 19.9533 202.447 22.06V23.3C202.447 23.6067 202.18 23.76 201.647 23.76C201.113 23.76 200.847 23.6067 200.847 23.3V21.86C200.847 20.82 199.867 20.3 197.907 20.3C195.96 20.3 194.987 20.82 194.987 21.86ZM204.843 19.2H213.243C213.51 19.2 213.643 19.4333 213.643 19.9C213.643 20.3667 213.51 20.6 213.243 20.6H209.843V33.64C209.843 33.9467 209.576 34.1 209.043 34.1C208.51 34.1 208.243 33.9467 208.243 33.64V20.6H204.843C204.576 20.6 204.443 20.3667 204.443 19.9C204.443 19.4333 204.576 19.2 204.843 19.2ZM225.245 31.34C225.245 32.38 226.252 32.9 228.265 32.9C230.292 32.9 231.305 32.38 231.305 31.34V19.56C231.305 19.2533 231.572 19.1 232.105 19.1C232.639 19.1 232.905 19.2533 232.905 19.56V31.14C232.905 32.2467 232.472 33.0533 231.605 33.56C230.752 34.0533 229.619 34.3 228.205 34.3C225.165 34.3 223.645 33.2467 223.645 31.14V19.56C223.645 19.2533 223.905 19.1 224.425 19.1C224.959 19.1 225.225 19.2533 225.225 19.56L225.245 31.34ZM244.238 31.34V29.08C244.238 28.64 244.064 28.32 243.718 28.12C243.371 27.92 242.771 27.72 241.918 27.52L240.138 27.12C239.324 26.9333 238.711 26.7267 238.298 26.5C237.418 26.0333 236.978 25.0667 236.978 23.6V22.06C236.978 20.9533 237.371 20.1533 238.158 19.66C238.958 19.1533 240.011 18.9 241.318 18.9C242.624 18.9 243.671 19.1533 244.458 19.66C245.244 20.1533 245.638 20.9533 245.638 22.06V22.94C245.638 23.2467 245.371 23.4 244.838 23.4C244.304 23.4 244.038 23.2467 244.038 22.94V21.86C244.038 20.82 243.124 20.3 241.298 20.3C239.484 20.3 238.578 20.82 238.578 21.86V23.56C238.578 24.2933 238.684 24.8 238.898 25.08C239.124 25.3467 239.538 25.5467 240.138 25.68L241.918 26.08C243.198 26.36 243.924 26.5533 244.098 26.66C244.284 26.7533 244.498 26.86 244.738 26.98C244.978 27.1 245.138 27.2267 245.218 27.36C245.311 27.48 245.418 27.6333 245.538 27.82C245.738 28.1267 245.838 28.6 245.838 29.24V31.14C245.838 32.2333 245.398 33.0333 244.518 33.54C243.651 34.0467 242.551 34.3 241.218 34.3C239.898 34.3 238.811 34.0467 237.958 33.54C237.118 33.0333 236.698 32.2333 236.698 31.14V30.26C236.698 29.9533 236.964 29.8 237.498 29.8C238.031 29.8 238.298 29.9533 238.298 30.26V31.34C238.298 31.8867 238.571 32.2867 239.118 32.54C239.678 32.78 240.378 32.9 241.218 32.9C242.071 32.9 242.784 32.7733 243.358 32.52C243.944 32.2667 244.238 31.8733 244.238 31.34Z" fill="black"/>
</g>
<g id="Name" filter="url(#filter10_d)">
<path d="M50 46.6H49.8V59.64C49.8 59.9467 49.5333 60.1 49 60.1C48.4667 60.1 48.2 59.9467 48.2 59.64V46.7C48.2 46.1133 48.2667 45.72 48.4 45.52C48.5467 45.3067 48.88 45.2 49.4 45.2H49.84C50.7733 45.2 51.4 45.3067 51.72 45.52C52.04 45.7333 52.3067 46.2667 52.52 47.12L55.12 57.62C55.24 58.1 55.3533 58.4 55.46 58.52C55.5667 58.64 55.8333 58.7 56.26 58.7H56.46V45.66C56.46 45.3533 56.7267 45.2 57.26 45.2C57.7933 45.2 58.06 45.3533 58.06 45.66V58.6C58.06 59.1867 57.9867 59.5867 57.84 59.8C57.7067 60 57.38 60.1 56.86 60.1H56.42C55.4867 60.1 54.86 59.9933 54.54 59.78C54.22 59.5667 53.9533 59.0333 53.74 58.18L51.14 47.68C51.02 47.2 50.9067 46.9 50.8 46.78C50.6933 46.66 50.4267 46.6 50 46.6ZM67.5178 60H65.1778C64.0045 60 63.1578 59.76 62.6378 59.28C62.1178 58.8 61.8578 57.9867 61.8578 56.84V56.68C61.8578 55.5467 62.0911 54.7667 62.5578 54.34C63.0245 53.9133 63.8578 53.64 65.0578 53.52L68.5178 53.18V50.96C68.5178 49.92 67.6111 49.4 65.7978 49.4H63.0578C62.7911 49.4 62.6578 49.1667 62.6578 48.7C62.6578 48.2333 62.7911 48 63.0578 48H65.7978C67.1045 48 68.1511 48.2533 68.9378 48.76C69.7245 49.2533 70.1178 50.0533 70.1178 51.16V57.06C70.1178 57.9267 70.2711 58.6133 70.5778 59.12C70.6711 59.28 70.7178 59.38 70.7178 59.42C70.7178 59.58 70.5911 59.7533 70.3378 59.94C70.0845 60.1133 69.8711 60.2 69.6978 60.2C69.4045 60.2 69.1311 59.9267 68.8778 59.38C68.6378 58.82 68.5178 58.1133 68.5178 57.26V54.58L65.1778 54.92C64.4578 55 63.9911 55.16 63.7778 55.4C63.5645 55.64 63.4578 56.0667 63.4578 56.68V56.84C63.4578 57.48 63.5645 57.9333 63.7778 58.2C64.0045 58.4667 64.4711 58.6 65.1778 58.6H67.5178C67.7845 58.6 67.9178 58.8333 67.9178 59.3C67.9178 59.7667 67.7845 60 67.5178 60ZM74.5086 59.64V50.86C74.5086 49.7667 74.8886 48.9667 75.6486 48.46C76.4219 47.9533 77.4886 47.7 78.8486 47.7C80.2086 47.7 81.2486 48.0533 81.9686 48.76C82.6753 48.0533 83.7086 47.7 85.0686 47.7C87.9753 47.7 89.4286 48.7533 89.4286 50.86V59.64C89.4286 59.9467 89.1619 60.1 88.6286 60.1C88.0953 60.1 87.8286 59.9467 87.8286 59.64V50.66C87.8286 49.62 86.9819 49.1 85.2886 49.1C83.6086 49.1 82.7686 49.6333 82.7686 50.7V59.64C82.7686 59.9467 82.5019 60.1 81.9686 60.1C81.4353 60.1 81.1686 59.9467 81.1686 59.64V50.66C81.1686 49.62 80.3219 49.1 78.6286 49.1C76.9486 49.1 76.1086 49.62 76.1086 50.66V59.64C76.1086 59.9467 75.8419 60.1 75.3086 60.1C74.7753 60.1 74.5086 59.9467 74.5086 59.64ZM102.385 50.82V51.42C102.385 52.5533 102.152 53.3333 101.685 53.76C101.218 54.1867 100.365 54.46 99.125 54.58L95.225 54.96V57.34C95.225 58.38 96.0917 58.9 97.825 58.9C99.7983 58.9 100.785 58.4467 100.785 57.54V56.78C100.785 56.4733 101.052 56.32 101.585 56.32C102.118 56.32 102.385 56.4733 102.385 56.78V57.34C102.385 59.3133 100.918 60.3 97.985 60.3C96.6917 60.3 95.6383 60.0467 94.825 59.54C94.025 59.0333 93.625 58.2333 93.625 57.14V50.86C93.625 49.7533 94.0517 48.9533 94.905 48.46C95.7583 47.9533 96.8717 47.7 98.245 47.7C99.6183 47.7 100.652 47.94 101.345 48.42C102.038 48.9 102.385 49.7 102.385 50.82ZM95.225 50.66V53.56L98.985 53.18C99.745 53.1 100.232 52.94 100.445 52.7C100.672 52.46 100.785 52.0333 100.785 51.42V50.66C100.785 49.62 99.8583 49.1 98.005 49.1C96.1517 49.1 95.225 49.62 95.225 50.66Z" fill="black"/>
</g>
</input>
<g id="Email Address" filter="url(#filter11_d)">
<path d="M44.6 160.84V163.34C44.6 164.38 45.54 164.9 47.42 164.9C49.3133 164.9 50.26 164.38 50.26 163.34V161.9C50.26 161.593 50.5267 161.44 51.06 161.44C51.5933 161.44 51.86 161.593 51.86 161.9V163.14C51.86 164.247 51.46 165.053 50.66 165.56C49.86 166.053 48.7867 166.3 47.44 166.3C46.1067 166.3 45.0333 166.053 44.22 165.56C43.4067 165.053 43 164.247 43 163.14V160.84C43 159.467 43.5867 158.64 44.76 158.36C43.72 158.04 43.2 157.227 43.2 155.92V154.06C43.2 152.953 43.6067 152.153 44.42 151.66C45.2333 151.153 46.2667 150.9 47.52 150.9C48.7867 150.9 49.7867 151.153 50.52 151.66C51.2533 152.167 51.62 152.967 51.62 154.06V154.36C51.62 154.667 51.3533 154.82 50.82 154.82C50.2867 154.82 50.02 154.667 50.02 154.36V153.86C50.02 152.82 49.1467 152.3 47.4 152.3C45.6667 152.3 44.8 152.82 44.8 153.86V155.92C44.8 157.093 45.52 157.68 46.96 157.68H48.46C48.7267 157.68 48.86 157.913 48.86 158.38C48.86 158.847 48.7267 159.08 48.46 159.08H46.76C45.32 159.08 44.6 159.667 44.6 160.84ZM55.2508 165.64V156.86C55.2508 155.767 55.6308 154.967 56.3908 154.46C57.1641 153.953 58.2308 153.7 59.5908 153.7C60.9508 153.7 61.9908 154.053 62.7108 154.76C63.4174 154.053 64.4508 153.7 65.8108 153.7C68.7174 153.7 70.1708 154.753 70.1708 156.86V165.64C70.1708 165.947 69.9041 166.1 69.3708 166.1C68.8374 166.1 68.5708 165.947 68.5708 165.64V156.66C68.5708 155.62 67.7241 155.1 66.0308 155.1C64.3508 155.1 63.5108 155.633 63.5108 156.7V165.64C63.5108 165.947 63.2441 166.1 62.7108 166.1C62.1774 166.1 61.9108 165.947 61.9108 165.64V156.66C61.9108 155.62 61.0641 155.1 59.3708 155.1C57.6908 155.1 56.8508 155.62 56.8508 156.66V165.64C56.8508 165.947 56.5841 166.1 56.0508 166.1C55.5174 166.1 55.2508 165.947 55.2508 165.64ZM79.6272 166H77.2872C76.1139 166 75.2672 165.76 74.7472 165.28C74.2272 164.8 73.9672 163.987 73.9672 162.84V162.68C73.9672 161.547 74.2005 160.767 74.6672 160.34C75.1339 159.913 75.9672 159.64 77.1672 159.52L80.6272 159.18V156.96C80.6272 155.92 79.7205 155.4 77.9072 155.4H75.1672C74.9005 155.4 74.7672 155.167 74.7672 154.7C74.7672 154.233 74.9005 154 75.1672 154H77.9072C79.2139 154 80.2605 154.253 81.0472 154.76C81.8339 155.253 82.2272 156.053 82.2272 157.16V163.06C82.2272 163.927 82.3805 164.613 82.6872 165.12C82.7805 165.28 82.8272 165.38 82.8272 165.42C82.8272 165.58 82.7005 165.753 82.4472 165.94C82.1939 166.113 81.9805 166.2 81.8072 166.2C81.5139 166.2 81.2405 165.927 80.9872 165.38C80.7472 164.82 80.6272 164.113 80.6272 163.26V160.58L77.2872 160.92C76.5672 161 76.1005 161.16 75.8872 161.4C75.6739 161.64 75.5672 162.067 75.5672 162.68V162.84C75.5672 163.48 75.6739 163.933 75.8872 164.2C76.1139 164.467 76.5805 164.6 77.2872 164.6H79.6272C79.8939 164.6 80.0272 164.833 80.0272 165.3C80.0272 165.767 79.8939 166 79.6272 166ZM88.218 154.36V163.66C88.218 164.087 88.318 164.487 88.518 164.86C88.718 165.22 88.818 165.407 88.818 165.42C88.818 165.58 88.6913 165.753 88.438 165.94C88.1846 166.113 87.9713 166.2 87.798 166.2C87.518 166.2 87.2513 165.96 86.998 165.48C86.7446 164.987 86.618 164.447 86.618 163.86V154.36C86.618 154.053 86.8846 153.9 87.418 153.9C87.9513 153.9 88.218 154.053 88.218 154.36ZM88.278 150.1V151.84C88.278 152.173 87.9846 152.34 87.398 152.34C86.8246 152.34 86.538 152.173 86.538 151.84V150.1C86.538 149.767 86.8246 149.6 87.398 149.6C87.9846 149.6 88.278 149.767 88.278 150.1ZM94.2141 150.46V163.66C94.2141 164.087 94.3141 164.487 94.5141 164.86C94.7141 165.22 94.8141 165.407 94.8141 165.42C94.8141 165.58 94.6874 165.753 94.4341 165.94C94.1807 166.113 93.9674 166.2 93.7941 166.2C93.5141 166.2 93.2474 165.96 92.9941 165.48C92.7407 164.987 92.6141 164.447 92.6141 163.86V150.46C92.6141 150.153 92.8807 150 93.4141 150C93.9474 150 94.2141 150.153 94.2141 150.46ZM115.273 154.06V165.64C115.273 165.947 115.006 166.1 114.473 166.1C113.939 166.1 113.673 165.947 113.673 165.64V160.22H107.613V165.64C107.613 165.947 107.346 166.1 106.813 166.1C106.279 166.1 106.013 165.947 106.013 165.64V154.06C106.013 153.313 106.233 152.7 106.673 152.22C107.113 151.727 107.673 151.387 108.353 151.2C109.033 151 109.833 150.9 110.753 150.9C113.766 150.9 115.273 151.953 115.273 154.06ZM107.613 153.86V158.82H113.673V153.86C113.673 152.82 112.659 152.3 110.633 152.3C108.619 152.3 107.613 152.82 107.613 153.86ZM128.125 150.46V163.14C128.125 164.247 127.732 165.053 126.945 165.56C126.158 166.053 125.112 166.3 123.805 166.3C122.498 166.3 121.445 166.053 120.645 165.56C119.858 165.053 119.465 164.247 119.465 163.14V157.16C119.465 156.053 119.858 155.253 120.645 154.76C121.432 154.253 122.478 154 123.785 154H125.525C125.792 154 125.925 154.233 125.925 154.7C125.925 155.167 125.792 155.4 125.525 155.4H123.785C121.972 155.4 121.065 155.92 121.065 156.96V163.34C121.065 164.38 121.972 164.9 123.785 164.9C125.612 164.9 126.525 164.38 126.525 163.34V150.46C126.525 150.153 126.792 150 127.325 150C127.858 150 128.125 150.153 128.125 150.46ZM140.976 150.46V163.14C140.976 164.247 140.583 165.053 139.796 165.56C139.01 166.053 137.963 166.3 136.656 166.3C135.35 166.3 134.296 166.053 133.496 165.56C132.71 165.053 132.316 164.247 132.316 163.14V157.16C132.316 156.053 132.71 155.253 133.496 154.76C134.283 154.253 135.33 154 136.636 154H138.376C138.643 154 138.776 154.233 138.776 154.7C138.776 155.167 138.643 155.4 138.376 155.4H136.636C134.823 155.4 133.916 155.92 133.916 156.96V163.34C133.916 164.38 134.823 164.9 136.636 164.9C138.463 164.9 139.376 164.38 139.376 163.34V150.46C139.376 150.153 139.643 150 140.176 150C140.71 150 140.976 150.153 140.976 150.46ZM150.688 157.66V156.66C150.688 155.62 150.068 155.1 148.828 155.1C147.588 155.1 146.968 155.62 146.968 156.66V165.84C146.968 166.147 146.701 166.3 146.168 166.3C145.635 166.3 145.368 166.147 145.368 165.84V156.86C145.368 155.753 145.681 154.953 146.308 154.46C146.948 153.953 147.788 153.7 148.828 153.7C151.135 153.7 152.288 154.74 152.288 156.82V157.66C152.288 157.967 152.021 158.12 151.488 158.12C150.955 158.12 150.688 157.967 150.688 157.66ZM163.44 156.82V157.42C163.44 158.553 163.206 159.333 162.74 159.76C162.273 160.187 161.42 160.46 160.18 160.58L156.28 160.96V163.34C156.28 164.38 157.146 164.9 158.88 164.9C160.853 164.9 161.84 164.447 161.84 163.54V162.78C161.84 162.473 162.106 162.32 162.64 162.32C163.173 162.32 163.44 162.473 163.44 162.78V163.34C163.44 165.313 161.973 166.3 159.04 166.3C157.746 166.3 156.693 166.047 155.88 165.54C155.08 165.033 154.68 164.233 154.68 163.14V156.86C154.68 155.753 155.106 154.953 155.96 154.46C156.813 153.953 157.926 153.7 159.3 153.7C160.673 153.7 161.706 153.94 162.4 154.42C163.093 154.9 163.44 155.7 163.44 156.82ZM156.28 156.66V159.56L160.04 159.18C160.8 159.1 161.286 158.94 161.5 158.7C161.726 158.46 161.84 158.033 161.84 157.42V156.66C161.84 155.62 160.913 155.1 159.06 155.1C157.206 155.1 156.28 155.62 156.28 156.66ZM174.334 157.46V156.68C174.334 155.627 173.474 155.1 171.754 155.1C171.02 155.1 170.42 155.22 169.954 155.46C169.487 155.7 169.254 156.08 169.254 156.6V157.04C169.254 157.76 169.347 158.233 169.534 158.46C169.72 158.673 170.12 158.853 170.734 159L172.474 159.44C174.127 159.867 175.107 160.28 175.414 160.68C175.787 161.173 175.974 161.827 175.974 162.64V163.36C175.974 164.4 175.567 165.153 174.754 165.62C173.954 166.073 172.914 166.3 171.634 166.3C169.554 166.3 168.234 165.773 167.674 164.72C167.447 164.28 167.334 163.747 167.334 163.12V162.48C167.334 162.307 167.394 162.193 167.514 162.14C167.634 162.073 167.84 162.04 168.134 162.04C168.654 162.04 168.914 162.207 168.914 162.54V163.44C168.914 163.973 169.147 164.353 169.614 164.58C170.08 164.793 170.76 164.9 171.654 164.9C173.48 164.9 174.394 164.433 174.394 163.5V162.44C174.394 162.027 174.234 161.707 173.914 161.48C173.607 161.253 173.074 161.04 172.314 160.84L170.554 160.4C169.367 160.107 168.587 159.76 168.214 159.36C167.854 158.947 167.674 158.153 167.674 156.98V156.74C167.7 155.673 168.08 154.9 168.814 154.42C169.547 153.94 170.514 153.7 171.714 153.7C174.514 153.7 175.914 154.74 175.914 156.82V157.52C175.914 157.8 175.647 157.94 175.114 157.94C174.594 157.94 174.334 157.78 174.334 157.46ZM186.97 157.46V156.68C186.97 155.627 186.11 155.1 184.39 155.1C183.657 155.1 183.057 155.22 182.59 155.46C182.124 155.7 181.89 156.08 181.89 156.6V157.04C181.89 157.76 181.984 158.233 182.17 158.46C182.357 158.673 182.757 158.853 183.37 159L185.11 159.44C186.764 159.867 187.744 160.28 188.05 160.68C188.424 161.173 188.61 161.827 188.61 162.64V163.36C188.61 164.4 188.204 165.153 187.39 165.62C186.59 166.073 185.55 166.3 184.27 166.3C182.19 166.3 180.87 165.773 180.31 164.72C180.084 164.28 179.97 163.747 179.97 163.12V162.48C179.97 162.307 180.03 162.193 180.15 162.14C180.27 162.073 180.477 162.04 180.77 162.04C181.29 162.04 181.55 162.207 181.55 162.54V163.44C181.55 163.973 181.784 164.353 182.25 164.58C182.717 164.793 183.397 164.9 184.29 164.9C186.117 164.9 187.03 164.433 187.03 163.5V162.44C187.03 162.027 186.87 161.707 186.55 161.48C186.244 161.253 185.71 161.04 184.95 160.84L183.19 160.4C182.004 160.107 181.224 159.76 180.85 159.36C180.49 158.947 180.31 158.153 180.31 156.98V156.74C180.337 155.673 180.717 154.9 181.45 154.42C182.184 153.94 183.15 153.7 184.35 153.7C187.15 153.7 188.55 154.74 188.55 156.82V157.52C188.55 157.8 188.284 157.94 187.75 157.94C187.23 157.94 186.97 157.78 186.97 157.46Z" fill="black"/>
</g>
<g id="Message" filter="url(#filter12_d)">
<path d="M54.28 272.64V259.6H54.08C53.6533 259.6 53.3867 259.66 53.28 259.78C53.1733 259.9 53.06 260.2 52.94 260.68L50.32 271.06C50.2533 271.367 49.9933 271.52 49.54 271.52C49.0867 271.52 48.8267 271.367 48.76 271.06L46.14 260.68C46.02 260.2 45.9067 259.9 45.8 259.78C45.6933 259.66 45.4267 259.6 45 259.6H44.8V272.64C44.8 272.947 44.5333 273.1 44 273.1C43.4667 273.1 43.2 272.947 43.2 272.64V259.7C43.2 259.113 43.2667 258.72 43.4 258.52C43.5467 258.307 43.88 258.2 44.4 258.2H44.84C45.7733 258.2 46.4 258.307 46.72 258.52C47.0533 258.733 47.32 259.267 47.52 260.12L49.54 268.42L51.56 260.12C51.76 259.267 52.02 258.733 52.34 258.52C52.6733 258.307 53.3067 258.2 54.24 258.2H54.68C55.2 258.2 55.5267 258.307 55.66 258.52C55.8067 258.72 55.88 259.113 55.88 259.7V272.64C55.88 272.947 55.6133 273.1 55.08 273.1C54.5467 273.1 54.28 272.947 54.28 272.64ZM68.8303 263.82V264.42C68.8303 265.553 68.597 266.333 68.1303 266.76C67.6636 267.187 66.8103 267.46 65.5703 267.58L61.6703 267.96V270.34C61.6703 271.38 62.537 271.9 64.2703 271.9C66.2436 271.9 67.2303 271.447 67.2303 270.54V269.78C67.2303 269.473 67.497 269.32 68.0303 269.32C68.5636 269.32 68.8303 269.473 68.8303 269.78V270.34C68.8303 272.313 67.3636 273.3 64.4303 273.3C63.137 273.3 62.0836 273.047 61.2703 272.54C60.4703 272.033 60.0703 271.233 60.0703 270.14V263.86C60.0703 262.753 60.497 261.953 61.3503 261.46C62.2036 260.953 63.317 260.7 64.6903 260.7C66.0636 260.7 67.097 260.94 67.7903 261.42C68.4836 261.9 68.8303 262.7 68.8303 263.82ZM61.6703 263.66V266.56L65.4303 266.18C66.1903 266.1 66.677 265.94 66.8903 265.7C67.117 265.46 67.2303 265.033 67.2303 264.42V263.66C67.2303 262.62 66.3036 262.1 64.4503 262.1C62.597 262.1 61.6703 262.62 61.6703 263.66ZM79.7242 264.46V263.68C79.7242 262.627 78.8642 262.1 77.1442 262.1C76.4109 262.1 75.8109 262.22 75.3442 262.46C74.8776 262.7 74.6442 263.08 74.6442 263.6V264.04C74.6442 264.76 74.7376 265.233 74.9242 265.46C75.1109 265.673 75.5109 265.853 76.1242 266L77.8642 266.44C79.5176 266.867 80.4976 267.28 80.8042 267.68C81.1776 268.173 81.3642 268.827 81.3642 269.64V270.36C81.3642 271.4 80.9576 272.153 80.1442 272.62C79.3442 273.073 78.3042 273.3 77.0242 273.3C74.9442 273.3 73.6242 272.773 73.0642 271.72C72.8376 271.28 72.7242 270.747 72.7242 270.12V269.48C72.7242 269.307 72.7842 269.193 72.9042 269.14C73.0242 269.073 73.2309 269.04 73.5242 269.04C74.0442 269.04 74.3042 269.207 74.3042 269.54V270.44C74.3042 270.973 74.5376 271.353 75.0042 271.58C75.4709 271.793 76.1509 271.9 77.0442 271.9C78.8709 271.9 79.7842 271.433 79.7842 270.5V269.44C79.7842 269.027 79.6242 268.707 79.3042 268.48C78.9976 268.253 78.4642 268.04 77.7042 267.84L75.9442 267.4C74.7576 267.107 73.9776 266.76 73.6042 266.36C73.2442 265.947 73.0642 265.153 73.0642 263.98V263.74C73.0909 262.673 73.4709 261.9 74.2042 261.42C74.9376 260.94 75.9042 260.7 77.1042 260.7C79.9042 260.7 81.3042 261.74 81.3042 263.82V264.52C81.3042 264.8 81.0376 264.94 80.5042 264.94C79.9842 264.94 79.7242 264.78 79.7242 264.46ZM92.3609 264.46V263.68C92.3609 262.627 91.5009 262.1 89.7809 262.1C89.0476 262.1 88.4476 262.22 87.9809 262.46C87.5143 262.7 87.2809 263.08 87.2809 263.6V264.04C87.2809 264.76 87.3743 265.233 87.5609 265.46C87.7476 265.673 88.1476 265.853 88.7609 266L90.5009 266.44C92.1543 266.867 93.1343 267.28 93.4409 267.68C93.8143 268.173 94.0009 268.827 94.0009 269.64V270.36C94.0009 271.4 93.5943 272.153 92.7809 272.62C91.9809 273.073 90.9409 273.3 89.6609 273.3C87.5809 273.3 86.2609 272.773 85.7009 271.72C85.4743 271.28 85.3609 270.747 85.3609 270.12V269.48C85.3609 269.307 85.4209 269.193 85.5409 269.14C85.6609 269.073 85.8676 269.04 86.1609 269.04C86.6809 269.04 86.9409 269.207 86.9409 269.54V270.44C86.9409 270.973 87.1743 271.353 87.6409 271.58C88.1076 271.793 88.7876 271.9 89.6809 271.9C91.5076 271.9 92.4209 271.433 92.4209 270.5V269.44C92.4209 269.027 92.2609 268.707 91.9409 268.48C91.6343 268.253 91.1009 268.04 90.3409 267.84L88.5809 267.4C87.3943 267.107 86.6143 266.76 86.2409 266.36C85.8809 265.947 85.7009 265.153 85.7009 263.98V263.74C85.7276 262.673 86.1076 261.9 86.8409 261.42C87.5743 260.94 88.5409 260.7 89.7409 260.7C92.5409 260.7 93.9409 261.74 93.9409 263.82V264.52C93.9409 264.8 93.6743 264.94 93.1409 264.94C92.6209 264.94 92.3609 264.78 92.3609 264.46ZM103.358 273H101.018C99.8443 273 98.9977 272.76 98.4777 272.28C97.9577 271.8 97.6977 270.987 97.6977 269.84V269.68C97.6977 268.547 97.931 267.767 98.3977 267.34C98.8643 266.913 99.6977 266.64 100.898 266.52L104.358 266.18V263.96C104.358 262.92 103.451 262.4 101.638 262.4H98.8977C98.631 262.4 98.4977 262.167 98.4977 261.7C98.4977 261.233 98.631 261 98.8977 261H101.638C102.944 261 103.991 261.253 104.778 261.76C105.564 262.253 105.958 263.053 105.958 264.16V270.06C105.958 270.927 106.111 271.613 106.418 272.12C106.511 272.28 106.558 272.38 106.558 272.42C106.558 272.58 106.431 272.753 106.178 272.94C105.924 273.113 105.711 273.2 105.538 273.2C105.244 273.2 104.971 272.927 104.718 272.38C104.478 271.82 104.358 271.113 104.358 270.26V267.58L101.018 267.92C100.298 268 99.831 268.16 99.6177 268.4C99.4043 268.64 99.2977 269.067 99.2977 269.68V269.84C99.2977 270.48 99.4043 270.933 99.6177 271.2C99.8443 271.467 100.311 271.6 101.018 271.6H103.358C103.624 271.6 103.758 271.833 103.758 272.3C103.758 272.767 103.624 273 103.358 273ZM118.808 264.16V270.6C118.808 270.907 118.542 271.06 118.008 271.06C117.475 271.06 117.208 270.907 117.208 270.6V263.96C117.208 262.973 116.375 262.453 114.708 262.4H114.488C112.662 262.4 111.748 262.92 111.748 263.96V269.48C111.748 270.253 111.862 270.8 112.088 271.12C112.328 271.44 112.735 271.6 113.308 271.6H114.888C116.155 271.6 117.122 271.847 117.788 272.34C118.468 272.833 118.808 273.64 118.808 274.76V274.84C118.808 275.96 118.468 276.767 117.788 277.26C117.122 277.753 116.155 278 114.888 278H110.348C110.082 278 109.948 277.767 109.948 277.3C109.948 276.833 110.082 276.6 110.348 276.6H114.888C115.675 276.6 116.255 276.48 116.628 276.24C117.015 276 117.208 275.6 117.208 275.04V274.56C117.208 274 117.015 273.6 116.628 273.36C116.255 273.12 115.675 273 114.888 273H113.308C112.162 273 111.348 272.727 110.868 272.18C110.388 271.62 110.148 270.72 110.148 269.48V264.16C110.148 263.053 110.542 262.253 111.328 261.76C112.128 261.253 113.182 261 114.488 261H117.288C118.155 261 118.842 260.853 119.348 260.56C119.508 260.453 119.608 260.4 119.648 260.4C119.808 260.4 119.975 260.527 120.148 260.78C120.335 261.033 120.428 261.247 120.428 261.42C120.428 261.66 120.228 261.867 119.828 262.04C119.442 262.213 118.922 262.327 118.268 262.38C118.628 262.873 118.808 263.467 118.808 264.16ZM131.76 263.82V264.42C131.76 265.553 131.527 266.333 131.06 266.76C130.593 267.187 129.74 267.46 128.5 267.58L124.6 267.96V270.34C124.6 271.38 125.467 271.9 127.2 271.9C129.173 271.9 130.16 271.447 130.16 270.54V269.78C130.16 269.473 130.427 269.32 130.96 269.32C131.493 269.32 131.76 269.473 131.76 269.78V270.34C131.76 272.313 130.293 273.3 127.36 273.3C126.067 273.3 125.013 273.047 124.2 272.54C123.4 272.033 123 271.233 123 270.14V263.86C123 262.753 123.427 261.953 124.28 261.46C125.133 260.953 126.247 260.7 127.62 260.7C128.993 260.7 130.027 260.94 130.72 261.42C131.413 261.9 131.76 262.7 131.76 263.82ZM124.6 263.66V266.56L128.36 266.18C129.12 266.1 129.607 265.94 129.82 265.7C130.047 265.46 130.16 265.033 130.16 264.42V263.66C130.16 262.62 129.233 262.1 127.38 262.1C125.527 262.1 124.6 262.62 124.6 263.66Z" fill="black"/>
</g>
</g>
</g>
</g>
</g>
<defs>
<filter id="filter0_d" x="42" y="588" width="301" height="72" filterUnits="userSpaceOnUse" color-interpolation-filters="sRGB">
<feFlood flood-opacity="0" result="BackgroundImageFix"/>
<feColorMatrix in="SourceAlpha" type="matrix" values="0 0 0 0 0 0 0 0 0 0 0 0 0 0 0 0 0 0 127 0"/>
<feOffset dy="4"/>
<feGaussianBlur stdDeviation="2"/>
<feColorMatrix type="matrix" values="0 0 0 0 0 0 0 0 0 0 0 0 0 0 0 0 0 0 0.25 0"/>
<feBlend mode="normal" in2="BackgroundImageFix" result="effect1_dropShadow"/>
<feBlend mode="normal" in="SourceGraphic" in2="effect1_dropShadow" result="shape"/>
</filter>
<filter id="filter1_d" x="102.385" y="611.88" width="181.514" height="21.36" filterUnits="userSpaceOnUse" color-interpolation-filters="sRGB">
<feFlood flood-opacity="0" result="BackgroundImageFix"/>
<feColorMatrix in="SourceAlpha" type="matrix" values="0 0 0 0 0 0 0 0 0 0 0 0 0 0 0 0 0 0 127 0"/>
<feOffset dy="4"/>
<feGaussianBlur stdDeviation="2"/>
<feColorMatrix type="matrix" values="0 0 0 0 0 0 0 0 0 0 0 0 0 0 0 0 0 0 0.25 0"/>
<feBlend mode="normal" in2="BackgroundImageFix" result="effect1_dropShadow"/>
<feBlend mode="normal" in="SourceGraphic" in2="effect1_dropShadow" result="shape"/>
</filter>
<filter id="filter2_d" x="42" y="691" width="301" height="72" filterUnits="userSpaceOnUse" color-interpolation-filters="sRGB">
<feFlood flood-opacity="0" result="BackgroundImageFix"/>
<feColorMatrix in="SourceAlpha" type="matrix" values="0 0 0 0 0 0 0 0 0 0 0 0 0 0 0 0 0 0 127 0"/>
<feOffset dy="4"/>
<feGaussianBlur stdDeviation="2"/>
<feColorMatrix type="matrix" values="0 0 0 0 0 0 0 0 0 0 0 0 0 0 0 0 0 0 0.25 0"/>
<feBlend mode="normal" in2="BackgroundImageFix" result="effect1_dropShadow"/>
<feBlend mode="normal" in="SourceGraphic" in2="effect1_dropShadow" result="shape"/>
</filter>
<filter id="filter3_d" x="96.5456" y="717.88" width="191.511" height="25.2" filterUnits="userSpaceOnUse" color-interpolation-filters="sRGB">
<feFlood flood-opacity="0" result="BackgroundImageFix"/>
<feColorMatrix in="SourceAlpha" type="matrix" values="0 0 0 0 0 0 0 0 0 0 0 0 0 0 0 0 0 0 127 0"/>
<feOffset dy="4"/>
<feGaussianBlur stdDeviation="2"/>
<feColorMatrix type="matrix" values="0 0 0 0 0 0 0 0 0 0 0 0 0 0 0 0 0 0 0.25 0"/>
<feBlend mode="normal" in2="BackgroundImageFix" result="effect1_dropShadow"/>
<feBlend mode="normal" in="SourceGraphic" in2="effect1_dropShadow" result="shape"/>
</filter>
<filter id="filter4_d" x="42" y="485" width="301" height="72" filterUnits="userSpaceOnUse" color-interpolation-filters="sRGB">
<feFlood flood-opacity="0" result="BackgroundImageFix"/>
<feColorMatrix in="SourceAlpha" type="matrix" values="0 0 0 0 0 0 0 0 0 0 0 0 0 0 0 0 0 0 127 0"/>
<feOffset dy="4"/>
<feGaussianBlur stdDeviation="2"/>
<feColorMatrix type="matrix" values="0 0 0 0 0 0 0 0 0 0 0 0 0 0 0 0 0 0 0.25 0"/>
<feBlend mode="normal" in2="BackgroundImageFix" result="effect1_dropShadow"/>
<feBlend mode="normal" in="SourceGraphic" in2="effect1_dropShadow" result="shape"/>
</filter>
<filter id="filter5_d" x="103.741" y="508.88" width="177.041" height="21.36" filterUnits="userSpaceOnUse" color-interpolation-filters="sRGB">
<feFlood flood-opacity="0" result="BackgroundImageFix"/>
<feColorMatrix in="SourceAlpha" type="matrix" values="0 0 0 0 0 0 0 0 0 0 0 0 0 0 0 0 0 0 127 0"/>
<feOffset dy="4"/>
<feGaussianBlur stdDeviation="2"/>
<feColorMatrix type="matrix" values="0 0 0 0 0 0 0 0 0 0 0 0 0 0 0 0 0 0 0.25 0"/>
<feBlend mode="normal" in2="BackgroundImageFix" result="effect1_dropShadow"/>
<feBlend mode="normal" in="SourceGraphic" in2="effect1_dropShadow" result="shape"/>
</filter>
<filter id="filter6_d" x="37" y="287" width="301" height="185" filterUnits="userSpaceOnUse" color-interpolation-filters="sRGB">
<feFlood flood-opacity="0" result="BackgroundImageFix"/>
<feColorMatrix in="SourceAlpha" type="matrix" values="0 0 0 0 0 0 0 0 0 0 0 0 0 0 0 0 0 0 127 0"/>
<feOffset dy="4"/>
<feGaussianBlur stdDeviation="2"/>
<feColorMatrix type="matrix" values="0 0 0 0 0 0 0 0 0 0 0 0 0 0 0 0 0 0 0.25 0"/>
<feBlend mode="normal" in2="BackgroundImageFix" result="effect1_dropShadow"/>
<feBlend mode="normal" in="SourceGraphic" in2="effect1_dropShadow" result="shape"/>
</filter>
<filter id="filter7_d" x="37" y="180" width="301" height="72" filterUnits="userSpaceOnUse" color-interpolation-filters="sRGB">
<feFlood flood-opacity="0" result="BackgroundImageFix"/>
<feColorMatrix in="SourceAlpha" type="matrix" values="0 0 0 0 0 0 0 0 0 0 0 0 0 0 0 0 0 0 127 0"/>
<feOffset dy="4"/>
<feGaussianBlur stdDeviation="2"/>
<feColorMatrix type="matrix" values="0 0 0 0 0 0 0 0 0 0 0 0 0 0 0 0 0 0 0.25 0"/>
<feBlend mode="normal" in2="BackgroundImageFix" result="effect1_dropShadow"/>
<feBlend mode="normal" in="SourceGraphic" in2="effect1_dropShadow" result="shape"/>
</filter>
<filter id="filter8_d" x="37" y="73" width="301" height="72" filterUnits="userSpaceOnUse" color-interpolation-filters="sRGB">
<feFlood flood-opacity="0" result="BackgroundImageFix"/>
<feColorMatrix in="SourceAlpha" type="matrix" values="0 0 0 0 0 0 0 0 0 0 0 0 0 0 0 0 0 0 127 0"/>
<feOffset dy="4"/>
<feGaussianBlur stdDeviation="2"/>
<feColorMatrix type="matrix" values="0 0 0 0 0 0 0 0 0 0 0 0 0 0 0 0 0 0 0.25 0"/>
<feBlend mode="normal" in2="BackgroundImageFix" result="effect1_dropShadow"/>
<feBlend mode="normal" in="SourceGraphic" in2="effect1_dropShadow" result="shape"/>
</filter>
<filter id="filter9_d" x="125.559" y="18.9" width="124.279" height="23.4" filterUnits="userSpaceOnUse" color-interpolation-filters="sRGB">
<feFlood flood-opacity="0" result="BackgroundImageFix"/>
<feColorMatrix in="SourceAlpha" type="matrix" values="0 0 0 0 0 0 0 0 0 0 0 0 0 0 0 0 0 0 127 0"/>
<feOffset dy="4"/>
<feGaussianBlur stdDeviation="2"/>
<feColorMatrix type="matrix" values="0 0 0 0 0 0 0 0 0 0 0 0 0 0 0 0 0 0 0.25 0"/>
<feBlend mode="normal" in2="BackgroundImageFix" result="effect1_dropShadow"/>
<feBlend mode="normal" in="SourceGraphic" in2="effect1_dropShadow" result="shape"/>
</filter>
<filter id="filter10_d" x="44.2" y="45.2" width="62.185" height="23.1" filterUnits="userSpaceOnUse" color-interpolation-filters="sRGB">
<feFlood flood-opacity="0" result="BackgroundImageFix"/>
<feColorMatrix in="SourceAlpha" type="matrix" values="0 0 0 0 0 0 0 0 0 0 0 0 0 0 0 0 0 0 127 0"/>
<feOffset dy="4"/>
<feGaussianBlur stdDeviation="2"/>
<feColorMatrix type="matrix" values="0 0 0 0 0 0 0 0 0 0 0 0 0 0 0 0 0 0 0.25 0"/>
<feBlend mode="normal" in2="BackgroundImageFix" result="effect1_dropShadow"/>
<feBlend mode="normal" in="SourceGraphic" in2="effect1_dropShadow" result="shape"/>
</filter>
<filter id="filter11_d" x="39" y="149.6" width="153.61" height="24.7" filterUnits="userSpaceOnUse" color-interpolation-filters="sRGB">
<feFlood flood-opacity="0" result="BackgroundImageFix"/>
<feColorMatrix in="SourceAlpha" type="matrix" values="0 0 0 0 0 0 0 0 0 0 0 0 0 0 0 0 0 0 127 0"/>
<feOffset dy="4"/>
<feGaussianBlur stdDeviation="2"/>
<feColorMatrix type="matrix" values="0 0 0 0 0 0 0 0 0 0 0 0 0 0 0 0 0 0 0.25 0"/>
<feBlend mode="normal" in2="BackgroundImageFix" result="effect1_dropShadow"/>
<feBlend mode="normal" in="SourceGraphic" in2="effect1_dropShadow" result="shape"/>
</filter>
<filter id="filter12_d" x="39.2" y="258.2" width="96.56" height="27.8" filterUnits="userSpaceOnUse" color-interpolation-filters="sRGB">
<feFlood flood-opacity="0" result="BackgroundImageFix"/>
<feColorMatrix in="SourceAlpha" type="matrix" values="0 0 0 0 0 0 0 0 0 0 0 0 0 0 0 0 0 0 127 0"/>
<feOffset dy="4"/>
<feGaussianBlur stdDeviation="2"/>
<feColorMatrix type="matrix" values="0 0 0 0 0 0 0 0 0 0 0 0 0 0 0 0 0 0 0.25 0"/>
<feBlend mode="normal" in2="BackgroundImageFix" result="effect1_dropShadow"/>
<feBlend mode="normal" in="SourceGraphic" in2="effect1_dropShadow" result="shape"/>
</filter>
<radialGradient id="paint0_diamond" cx="0" cy="0" r="1" gradientUnits="userSpaceOnUse" gradientTransform="translate(187.5 406) rotate(90) scale(406 187.5)">
<stop stop-color="#F7E3A8" stop-opacity="0.94"/>
<stop offset="0.916256" stop-color="#881C94" stop-opacity="0.61"/>
</radialGradient>
</defs>
</svg>
